<mxfile host="app.diagrams.net" agent="Mozilla/5.0 (Windows NT 10.0; Win64; x64) AppleWebKit/537.36 (KHTML, like Gecko) Chrome/139.0.0.0 Safari/537.36" version="28.1.2">
  <diagram name="Page-1" id="WusdQl4idoX09VxjZSq7">
    <mxGraphModel dx="1426" dy="791" grid="1" gridSize="10" guides="1" tooltips="1" connect="1" arrows="1" fold="1" page="1" pageScale="1" pageWidth="850" pageHeight="1100" math="0" shadow="0">
      <root>
        <mxCell id="0" />
        <mxCell id="1" parent="0" />
        <mxCell id="NqRDk10zx9RHpSgKVusD-2" style="edgeStyle=orthogonalEdgeStyle;rounded=0;orthogonalLoop=1;jettySize=auto;html=1;" edge="1" parent="1" source="NqRDk10zx9RHpSgKVusD-1">
          <mxGeometry relative="1" as="geometry">
            <mxPoint x="310" y="480" as="targetPoint" />
            <mxPoint x="280" y="550" as="sourcePoint" />
            <Array as="points">
              <mxPoint x="220" y="550" />
              <mxPoint x="280" y="550" />
              <mxPoint x="280" y="481" />
            </Array>
          </mxGeometry>
        </mxCell>
        <mxCell id="NqRDk10zx9RHpSgKVusD-1" value="&lt;b&gt;&lt;u&gt;customer&lt;/u&gt;&lt;/b&gt;&lt;div&gt;&lt;span style=&quot;background-color: transparent; color: light-dark(rgb(0, 0, 0), rgb(255, 255, 255));&quot;&gt;customer_id&lt;/span&gt;&lt;div&gt;store_id&amp;nbsp;&lt;/div&gt;&lt;div&gt;first_name&amp;nbsp;&lt;/div&gt;&lt;div&gt;last_name&lt;/div&gt;&lt;div&gt;email&lt;/div&gt;&lt;div&gt;address_id&amp;nbsp;&lt;/div&gt;&lt;div&gt;active&amp;nbsp;&lt;/div&gt;&lt;div&gt;create_date&lt;/div&gt;&lt;div&gt;last_update&lt;/div&gt;&lt;div&gt;&lt;br&gt;&lt;/div&gt;&lt;/div&gt;" style="rounded=0;whiteSpace=wrap;html=1;fillColor=#d5e8d4;strokeColor=#82b366;" vertex="1" parent="1">
          <mxGeometry x="150" y="210" width="120" height="220" as="geometry" />
        </mxCell>
        <mxCell id="NqRDk10zx9RHpSgKVusD-6" value="" style="edgeStyle=orthogonalEdgeStyle;rounded=0;orthogonalLoop=1;jettySize=auto;html=1;" edge="1" parent="1" source="NqRDk10zx9RHpSgKVusD-3" target="NqRDk10zx9RHpSgKVusD-4">
          <mxGeometry relative="1" as="geometry">
            <mxPoint x="510" y="540" as="targetPoint" />
            <Array as="points">
              <mxPoint x="470" y="540" />
              <mxPoint x="470" y="541" />
              <mxPoint x="510" y="541" />
            </Array>
          </mxGeometry>
        </mxCell>
        <mxCell id="NqRDk10zx9RHpSgKVusD-3" value="&lt;b&gt;&lt;u&gt;address&lt;/u&gt;&lt;/b&gt;&lt;div&gt;address_id&lt;/div&gt;&lt;div&gt;address&lt;/div&gt;&lt;div&gt;address2&lt;/div&gt;&lt;div&gt;district&lt;/div&gt;&lt;div&gt;city_id&lt;/div&gt;&lt;div&gt;postal_code&lt;/div&gt;&lt;div&gt;phone&amp;nbsp;&lt;/div&gt;&lt;div&gt;location&amp;nbsp;&lt;/div&gt;&lt;div&gt;last_update&lt;/div&gt;" style="rounded=0;whiteSpace=wrap;html=1;fillColor=#d5e8d4;strokeColor=#82b366;" vertex="1" parent="1">
          <mxGeometry x="310" y="430" width="120" height="220" as="geometry" />
        </mxCell>
        <mxCell id="NqRDk10zx9RHpSgKVusD-4" value="&lt;b&gt;&lt;u&gt;city&amp;nbsp;&lt;/u&gt;&lt;/b&gt;&lt;div&gt;city_id&lt;/div&gt;&lt;div&gt;city&amp;nbsp;&lt;/div&gt;&lt;div&gt;country_id&lt;/div&gt;&lt;div&gt;last_update&lt;/div&gt;" style="rounded=0;whiteSpace=wrap;html=1;fillColor=#d5e8d4;strokeColor=#82b366;" vertex="1" parent="1">
          <mxGeometry x="450" y="290" width="120" height="140" as="geometry" />
        </mxCell>
        <mxCell id="NqRDk10zx9RHpSgKVusD-7" style="edgeStyle=orthogonalEdgeStyle;rounded=0;orthogonalLoop=1;jettySize=auto;html=1;exitX=0.5;exitY=1;exitDx=0;exitDy=0;" edge="1" parent="1" source="NqRDk10zx9RHpSgKVusD-4" target="NqRDk10zx9RHpSgKVusD-4">
          <mxGeometry relative="1" as="geometry" />
        </mxCell>
        <mxCell id="NqRDk10zx9RHpSgKVusD-8" value="&lt;u style=&quot;font-weight: bold;&quot;&gt;&amp;nbsp;country&lt;/u&gt;&amp;nbsp;&lt;div&gt;country_id&lt;/div&gt;&lt;div&gt;country&amp;nbsp;&lt;/div&gt;&lt;div&gt;last_update&lt;/div&gt;&lt;div&gt;&lt;br&gt;&lt;/div&gt;" style="rounded=0;whiteSpace=wrap;html=1;fillColor=#d5e8d4;strokeColor=#82b366;" vertex="1" parent="1">
          <mxGeometry x="630" y="320" width="140" height="120" as="geometry" />
        </mxCell>
        <mxCell id="NqRDk10zx9RHpSgKVusD-9" style="edgeStyle=orthogonalEdgeStyle;rounded=0;orthogonalLoop=1;jettySize=auto;html=1;entryX=1;entryY=0.5;entryDx=0;entryDy=0;" edge="1" parent="1" source="NqRDk10zx9RHpSgKVusD-4">
          <mxGeometry relative="1" as="geometry">
            <mxPoint x="610" y="250" as="sourcePoint" />
            <mxPoint x="670" y="320" as="targetPoint" />
            <Array as="points">
              <mxPoint x="610" y="360" />
              <mxPoint x="610" y="230" />
              <mxPoint x="690" y="230" />
              <mxPoint x="690" y="300" />
              <mxPoint x="670" y="300" />
            </Array>
          </mxGeometry>
        </mxCell>
        <mxCell id="NqRDk10zx9RHpSgKVusD-10" value="&lt;h1&gt;&lt;font&gt;&lt;span style=&quot;font-weight: normal;&quot;&gt;&amp;nbsp;Schema design of selected tables&lt;/span&gt;.&lt;/font&gt;&lt;/h1&gt;" style="rounded=0;whiteSpace=wrap;html=1;fontSize=12;fillColor=#dae8fc;strokeColor=#6c8ebf;" vertex="1" parent="1">
          <mxGeometry x="230" y="130" width="490" height="60" as="geometry" />
        </mxCell>
      </root>
    </mxGraphModel>
  </diagram>
</mxfile>
